<?xml version="1.0" encoding="utf-8"?>
<!-- Generator: Adobe Illustrator 19.2.0, SVG Export Plug-In . SVG Version: 6.00 Build 0)  -->
<svg version="1.1" id="Layer_1" xmlns="http://www.w3.org/2000/svg" xmlns:xlink="http://www.w3.org/1999/xlink" x="0px" y="0px"
	 viewBox="0 0 792 390" style="enable-background:new 0 0 792 390;" xml:space="preserve">
<style type="text/css">
	.st0{fill:#003764;}
	.st1{fill:#1D517A;}
	.st2{fill:#FFFFFF;}
	.st3{fill:#EE4036;}
</style>
<g>
	<path class="st0" d="M389,10.1c49.3,0,87.7,37.7,87.7,86.2c0,48.6-38.4,86.2-87.7,86.2s-87.7-37.7-87.7-86.2
		C301.3,47.8,339.7,10.1,389,10.1 M389,123.4c13.5,0,24.3-11.6,24.3-25.9c0-14.3-10.9-25.9-24.3-25.9s-24.3,11.6-24.3,25.9
		C364.6,111.9,375.5,123.4,389,123.4"/>
	<polygon class="st0" points="110.6,71.6 110.6,152.3 317.3,152.3 285.8,71.6 	"/>
	<path class="st0" d="M33.6,131.1C56,145.7,78.7,151,88.6,151c6.9,0,8.6-2.8,8.6-5.6c0-3.2-2.1-4.6-5.1-5.3
		c-8.1-2.1-31.4-4.6-48.6-19.7c-8.8-7.9-14.8-18.7-14.8-34.9c0-33.5,25.9-56.4,68.2-56.4c15.1,0,32.3,2.9,46.4,7.7
		c7.9,2.7,13.3,10.2,13.3,18.5v41.7c-21.7-10.9-42.1-14.8-50.6-14.8c-6.7,0-8.6,2.5-8.6,5.1c0,3.5,2.5,4.9,5.3,5.8
		c6.9,2.1,30.1,4.9,46.5,17.8c11.3,9.2,16.9,21,16.9,36.1c0,32.1-25.9,54.6-69.8,54.6c-15.9,0-34.2-2.9-49.3-8
		c-8-2.7-13.3-10.2-13.3-18.6V131.1z"/>
	<path class="st0" d="M174.9,31.7h100.9c10.8,0,19.6,8.8,19.6,19.6v36.4h-51.6v9h38.9v39.8h-38.9v9.5h54.8v33.6
		c0,10.8-8.8,19.6-19.6,19.6H174.9V31.7z"/>
	<path class="st1" d="M389,29.1c49.3,0,87.7,37.7,87.7,86.2c0,48.6-38.4,86.2-87.7,86.2s-87.7-37.7-87.7-86.2
		C301.3,66.8,339.7,29.1,389,29.1 M389,142.4c13.5,0,24.3-11.6,24.3-25.9c0-14.3-10.9-25.9-24.3-25.9s-24.3,11.6-24.3,25.9
		C364.6,130.9,375.5,142.4,389,142.4"/>
	<path class="st0" d="M485.6,123V51.3c0-10.8,8.8-19.6,19.6-19.6h49.3v86.7c0,15.7,5.1,26.8,21,26.8c15.3,0,20.6-9.7,20.6-26.6V51.3
		c0-10.8,8.8-19.6,19.6-19.6h42.4v90.4c0,25.7-6.5,41.8-15.3,52.5c-15.3,18.5-43,27.1-71.4,27.1c-29.4,0-55.3-9.3-70.1-26.6
		C493,165.3,485.6,150.3,485.6,123"/>
	<path class="st0" d="M689.3,31.7h49.3v108h51.8v39.8c0,10.8-8.8,19.6-19.6,19.6H669.7V51.3C669.7,40.4,678.5,31.7,689.3,31.7"/>
	<path class="st0" d="M133.2,275h-27.1c-10.8,0-19.6-8.8-19.6-19.6v-37.3h142.7c10.8,0,19.6,8.8,19.6,19.6V275h-46.7v110.5h-68.9
		V275z"/>
	<path class="st0" d="M681.6,188.8l-23.5,51.5L557,261.4l-35.7,24.1l-46.1-1.5l-89.8,12H258.8l-75.7-40l-34.4-26.6l-21.5-40.5
		l44.7-18.6h49.8l40.5-10.1c0,0,14.1-16.2,25.2-15.2c11.1,1,53.3,16,53.3,16s59.9,11,63.7,9.3c3.8-1.7,36.7-46.4,40.1-46.8
		c3.4-0.4,80.2,28.9,80.2,28.9s29.5,18.8,38.8,16.2c9.3-2.5,67.5-38,67.9-38.8c0.4-0.8,19,8.4,19,8.4L681.6,188.8z"/>
	<path class="st0" d="M283.3,218.1h52.4c8.1,0,15.4,5,18.3,12.6l59,154.8h-59.4c-8.9,0-16.7-6-18.9-14.6l-1.9-7.4h-38.4l-6.5,22h-40
		c-13.7,0-23.2-13.7-18.3-26.6L283.3,218.1z M321.7,321.4l-7.4-34h-0.5l-7.4,34H321.7z"/>
	<path class="st0" d="M497,215.5c19,0,38.6,4.2,49.2,9.7v28.6c0,12.5-11.6,21.8-23.8,19.1c-5.7-1.3-11.7-2-17.8-2
		c-23.6,0-36.3,16.8-36.3,32.3c0,15.5,12.7,26.6,36.3,26.6c15.5,0,31-4.6,42.5-11.1v45.6c0,8.8-5.9,16.5-14.4,18.9
		c-10.5,3-23.6,4.9-36.5,4.9c-55.9,0-96.9-36.5-96.9-86.2C399.4,252.3,440.1,215.5,497,215.5"/>
	<path class="st0" d="M650.4,215.5c52.5,0,93.4,37.7,93.4,86.2c0,48.6-40.9,86.2-93.4,86.2c-52.5,0-93.4-37.7-93.4-86.2
		C557,253.2,597.9,215.5,650.4,215.5 M650.4,328.8c14.3,0,25.9-11.6,25.9-25.9c0-14.3-11.6-25.9-25.9-25.9
		c-14.3,0-25.9,11.6-25.9,25.9C624.5,317.3,636.1,328.8,650.4,328.8"/>
	<path class="st2" d="M77.2,186.7c-16.5,0-35.4-3.1-50.6-8.3c-9.6-3.3-16.1-12.3-16.1-22.4v-51.4l6.3,4.1
		c21.7,14.1,43.5,19.2,52.8,19.2c2,0,4.5-0.3,4.5-1.5c0-0.6,0-0.9-1.9-1.3c-1.4-0.3-3-0.7-4.9-1.1c-10.6-2.2-30.2-6.2-45.4-19.5
		c-10.9-9.8-16.2-22.2-16.2-38C5.7,29.8,34,6.1,77.9,6.1c15.2,0,33,3,47.7,7.9c9.6,3.2,16,12.2,16,22.4v48.4l-5.9-3
		C114.7,71.2,95,67.4,87,67.4c-3.6,0-4.5,0.9-4.5,0.9c0,0.7,0,1.2,2.5,2c1.2,0.3,3.1,0.8,5.4,1.3c9.9,2.2,28.4,6.2,42.3,17.2
		c12.4,10.1,18.4,23,18.4,39.3C151.1,163.7,122.1,186.7,77.2,186.7"/>
	<path class="st0" d="M77.9,10.1c15.1,0,32.3,2.9,46.4,7.7c7.9,2.7,13.3,10.2,13.3,18.5v41.7C115.9,67.2,95.5,63.3,87,63.3
		c-6.7,0-8.6,2.5-8.6,5.1c0,3.5,2.5,4.9,5.3,5.8c6.9,2.1,30.1,4.9,46.5,17.8c11.3,9.2,16.9,21,16.9,36.1c0,32.1-25.9,54.6-69.8,54.6
		c-15.9,0-34.2-2.9-49.3-8c-8-2.7-13.3-10.2-13.3-18.6v-43.9C37,126.7,59.7,132,69.6,132c6.9,0,8.6-2.8,8.6-5.5
		c0-3.2-2.1-4.6-5.1-5.3c-8.1-2.1-31.4-4.6-48.6-19.7C15.7,93.6,9.7,82.7,9.7,66.5C9.7,33,35.6,10.1,77.9,10.1 M77.9,2
		C32.3,2,1.6,27.9,1.6,66.5c0,13.8,3.9,25.5,11.8,35l-6.9-4.5v15V156c0,11.9,7.6,22.5,18.9,26.3c15.6,5.3,35,8.5,51.9,8.5
		c47.4,0,78-24.6,78-62.7c0-16.8-6.2-30.6-18.5-41.3l9.1,4.5V78.1V36.4c0-11.9-7.6-22.5-18.8-26.3C111.6,4.9,93.8,2,77.9,2"/>
	<path class="st2" d="M151.8,184.1V8.6h105c13,0,23.7,10.6,23.7,23.7v40.5h-51.6v0.9h38.9v47.9h-38.9v1.3h54.8v37.7
		c0,13-10.6,23.7-23.7,23.7H151.8z"/>
	<path class="st0" d="M256.7,12.7c10.8,0,19.6,8.8,19.6,19.6v36.4h-51.6v9h38.9v39.8h-38.9v9.5h54.8v33.6c0,10.8-8.8,19.6-19.6,19.6
		H155.9V12.7H256.7 M256.7,4.5H155.9h-8.2v8.2v167.4v8.2h8.2H260c15.3,0,27.7-12.4,27.7-27.7v-33.6v-8.2h-8.2h-7.7v-1.3V77.6v-0.9
		h4.5h8.2v-8.2V32.3C284.5,17,272,4.5,256.7,4.5"/>
	<path class="st2" d="M369.9,186.7c-51.4,0-91.8-39.7-91.8-90.3s40.3-90.3,91.8-90.3c51.4,0,91.8,39.7,91.8,90.3
		S421.4,186.7,369.9,186.7 M369.9,75.7c-11.2,0-20.2,9.8-20.2,21.8c0,12,9.1,21.8,20.2,21.8c11.2,0,20.2-9.8,20.2-21.8
		C390.2,85.5,381.1,75.7,369.9,75.7"/>
	<path class="st0" d="M369.9,10.1c49.3,0,87.7,37.7,87.7,86.2c0,48.6-38.4,86.2-87.7,86.2c-49.3,0-87.7-37.7-87.7-86.2
		C282.3,47.8,320.7,10.1,369.9,10.1 M369.9,123.4c13.5,0,24.3-11.6,24.3-25.9c0-14.3-10.9-25.9-24.3-25.9
		c-13.5,0-24.3,11.6-24.3,25.9C345.6,111.9,356.5,123.4,369.9,123.4 M369.9,2c-53.7,0-95.8,41.5-95.8,94.4
		c0,52.9,42.1,94.4,95.8,94.4c53.7,0,95.8-41.5,95.8-94.4C465.8,43.4,423.7,2,369.9,2 M369.9,115.3c-8.9,0-16.1-8-16.1-17.7
		c0-9.8,7.2-17.7,16.1-17.7c8.9,0,16.1,8,16.1,17.7C386.1,107.3,378.8,115.3,369.9,115.3"/>
	<path class="st2" d="M552.4,186.7c-31.3,0-58-10.2-73.2-28c-11.2-13.1-16.7-31-16.7-54.7V32.3c0-13,10.6-23.7,23.7-23.7h53.4v90.8
		c0,20,8.6,22.7,17,22.7c8.6,0,16.5-2.7,16.5-22.5V32.3c0-13,10.6-23.7,23.7-23.7h46.5v94.5c0,23.5-5.4,42.1-16.2,55.1
		C612,176.3,584.9,186.7,552.4,186.7"/>
	<path class="st0" d="M639.1,12.7v90.4c0,25.7-6.5,41.9-15.3,52.5c-15.3,18.5-43,27.1-71.4,27.1c-29.4,0-55.3-9.2-70.1-26.6
		c-8.3-9.7-15.7-24.7-15.7-52V32.3c0-10.8,8.8-19.6,19.6-19.6h49.3v86.7c0,15.7,5.1,26.8,21,26.8c15.3,0,20.6-9.7,20.6-26.6V32.3
		c0-10.8,8.8-19.6,19.6-19.6H639.1 M647.3,4.5h-8.2h-42.4C581.4,4.5,569,17,569,32.3v67.4c0,17-5.6,18.4-12.4,18.4
		c-6.5,0-12.9-1.4-12.9-18.7V12.7V4.5h-8.2h-49.3c-15.3,0-27.7,12.4-27.7,27.7V104c0,24.7,5.8,43.4,17.7,57.3
		c16,18.7,43.8,29.4,76.3,29.4c33.7,0,62-10.9,77.7-30c11.4-13.8,17.1-33.2,17.1-57.7V12.7V4.5z"/>
	<path class="st2" d="M646.6,184.1V32.3c0-13,10.6-23.7,23.7-23.7h53.4v108h51.8v43.9c0,13-10.6,23.7-23.7,23.7H646.6z"/>
	<path class="st0" d="M719.6,12.7v108h51.8v39.8c0,10.8-8.8,19.6-19.6,19.6H650.7V32.3c0-10.8,8.8-19.6,19.6-19.6H719.6 M727.8,4.5
		h-8.2h-49.3c-15.3,0-27.7,12.4-27.7,27.7v147.8v8.2h8.2h101.1c15.3,0,27.7-12.4,27.7-27.7v-39.8v-8.2h-8.2h-43.6V12.7V4.5z"/>
	<path class="st2" d="M110.1,370.6V260h-23c-13,0-23.7-10.6-23.7-23.7V195h146.8c13,0,23.7,10.6,23.7,23.7V260h-46.7v110.5H110.1z"
		/>
	<path class="st0" d="M210.2,199.1c10.8,0,19.6,8.8,19.6,19.6V256h-46.7v110.5h-68.9V256H87.1c-10.8,0-19.6-8.8-19.6-19.6v-37.3
		H210.2 M210.2,190.9H67.5h-8.2v8.2v37.3c0,15.3,12.4,27.7,27.7,27.7h19v102.4v8.2h8.2h68.9h8.2v-8.2V264.1h38.5h8.2V256v-37.3
		C238,203.4,225.5,190.9,210.2,190.9"/>
	<path class="st2" d="M334.7,370.6c-10.7,0-20.1-7.3-22.9-17.6l-1.1-4.3h-32.2l-6.5,22h-43.1c-7.8,0-15.1-3.8-19.5-10.2
		c-4.4-6.4-5.4-14.6-2.6-21.9L261.5,195h55.2c9.8,0,18.6,6.1,22.1,15.2l61.1,160.3H334.7z M297.6,298.4l-2.6-11.8l-2.6,11.8H297.6z"
		/>
	<path class="st0" d="M316.7,199.1c8.1,0,15.4,5,18.3,12.6l59,154.8h-59.4c-8.9,0-16.7-6-18.9-14.6l-1.9-7.4h-38.4l-6.5,22h-40
		c-13.7,0-23.2-13.7-18.3-26.6l53.7-140.8H316.7 M287.4,302.4h15.3l-7.4-34h-0.5L287.4,302.4 M316.7,190.9h-52.4h-5.6l-2,5.3
		L203,337c-3.3,8.5-2.1,18.1,3.1,25.6c5.2,7.5,13.7,12,22.8,12h40h6.1l1.7-5.9l4.7-16.1h26l0.3,1.3c3.2,12.2,14.2,20.7,26.8,20.7
		H394h11.8l-4.2-11.1l-59-154.8C338.6,198.1,328.1,190.9,316.7,190.9"/>
	<path class="st2" d="M477.3,373.1c-58.5,0-101-38-101-90.3c0-52.3,42.8-90.3,101.7-90.3c18.9,0,39.5,4.1,51.1,10.2l2.2,1.1v31.1
		c0,13-10.6,23.7-23.6,23.7c-1.7,0-3.5-0.2-5.2-0.6c-5.7-1.3-11.4-1.9-16.9-1.9c-20.9,0-32.2,14.5-32.2,28.2
		c0,14.1,12,22.5,32.2,22.5c13.8,0,28.5-3.9,40.5-10.6l6.1-3.4v52.5c0,10.6-7.1,19.9-17.3,22.8C503.2,371.3,489.9,373.1,477.3,373.1
		"/>
	<path class="st0" d="M478,196.5c19,0,38.6,4.2,49.2,9.7v28.6c0,11-9,19.6-19.5,19.6c-1.4,0-2.9-0.2-4.3-0.5c-5.7-1.3-11.7-2-17.8-2
		c-23.6,0-36.3,16.8-36.3,32.3c0,15.5,12.7,26.6,36.3,26.6c15.5,0,31-4.6,42.5-11.1v45.6c0,8.8-5.9,16.5-14.4,18.9
		c-10.5,3-23.6,4.9-36.5,4.9c-55.9,0-96.9-36.5-96.9-86.2C380.4,233.3,421.1,196.5,478,196.5 M478,188.4
		c-61.3,0-105.7,39.7-105.7,94.4c0,26.4,10.7,50.5,30.2,67.9c19.2,17.1,45.8,26.5,74.8,26.5c13,0,26.7-1.9,38.7-5.2
		c12-3.4,20.3-14.4,20.3-26.7v-45.6v-13.9l-12.1,6.8c-11.4,6.4-25.5,10.1-38.6,10.1c-17.6,0-28.1-6.9-28.1-18.4
		c0-11.7,9.9-24.1,28.1-24.1c5.2,0,10.6,0.6,16,1.8c2,0.4,4.1,0.7,6.1,0.7c15.3,0,27.7-12.4,27.7-27.7v-28.6v-4.9L531,199
		C518.8,192.7,497.5,188.4,478,188.4"/>
	<path class="st2" d="M631.4,373.1c-54.7,0-97.5-39.7-97.5-90.3s42.8-90.3,97.5-90.3c54.7,0,97.5,39.7,97.5,90.3
		S686.1,373.1,631.4,373.1 M631.4,262.1c-12,0-21.8,9.8-21.8,21.8c0,12,9.8,21.8,21.8,21.8c12,0,21.8-9.8,21.8-21.8
		C653.2,271.9,643.4,262.1,631.4,262.1"/>
	<path class="st0" d="M631.4,196.5c52.5,0,93.4,37.7,93.4,86.2c0,48.6-40.9,86.2-93.4,86.2c-52.5,0-93.4-37.7-93.4-86.2
		C538,234.2,578.9,196.5,631.4,196.5 M631.4,309.8c14.3,0,25.9-11.6,25.9-25.9c0-14.3-11.6-25.9-25.9-25.9
		c-14.3,0-25.9,11.6-25.9,25.9C605.5,298.3,617.1,309.8,631.4,309.8 M631.4,188.4c-57,0-101.6,41.5-101.6,94.4
		c0,52.9,44.6,94.4,101.6,94.4c57,0,101.6-41.5,101.6-94.4C733,229.8,688.4,188.4,631.4,188.4 M631.4,301.7c-9.8,0-17.7-8-17.7-17.7
		c0-9.8,8-17.7,17.7-17.7c9.8,0,17.7,8,17.7,17.7C649.2,293.7,641.2,301.7,631.4,301.7"/>
	<path class="st3" d="M409.2,118c-0.1-0.3,0.1-0.5,0.2-0.7c2.8-8,1.7-15.4-3.3-22.1c-3.6-4.7-8.5-7.5-14.3-8.3
		c-7.1-0.9-13.2,1.2-18.4,6.1c-1.4,1.3-2.4,2.9-3.5,4.4c-3.7,5.2-8.7,8.3-15,9.1c-7.5,1-13.9-1.4-19.1-7c-3.3-3.5-5.2-7.8-5.7-12.6
		c-0.5-4,0.1-7.8,1.6-11.5c0.1-0.2,0.2-0.3,0.1-0.5l0,0c0.2-0.1,0.1-0.2,0.1-0.3c1.6-3,3.6-5.8,5.9-8.3c6.8-7.5,15.1-12.1,25-13.9
		c23-4.2,45.3,10.7,50.7,33.9c2.5,10.8,1.2,21.2-3.8,31.2C409.5,117.6,409.5,117.9,409.2,118"/>
	<path class="st0" d="M408.9,118.5c-0.4,1.2-1.1,2.3-1.8,3.3c-5.2,7.8-12.1,13.4-20.7,16.8c-5.8,2.3-11.7,3.3-17.9,3
		c-19-0.9-35.1-13.6-40.6-32c-1.6-5.2-2.1-10.5-1.8-16c0.4-6.6,2.2-12.8,5.3-18.6c0-0.1,0.1-0.2,0.2-0.2c0.1,0.2-0.1,0.3-0.1,0.5
		c-1.5,3.7-2.1,7.5-1.6,11.5c0.6,4.8,2.4,9.1,5.7,12.6c5.2,5.5,11.6,8,19.1,7c6.3-0.8,11.3-3.9,15-9.1c1.1-1.5,2.2-3.1,3.5-4.4
		c5.2-4.9,11.3-7,18.4-6.1c5.9,0.8,10.7,3.5,14.3,8.3c5.1,6.7,6.1,14.1,3.3,22.1c-0.1,0.2-0.3,0.4-0.2,0.7l0,0
		c-0.2,0-0.2,0.1-0.1,0.3l0,0C408.9,118.2,408.9,118.4,408.9,118.5"/>
	<path class="st0" d="M370.1,52.2c24.4,0,42.8,19,42.8,44.2c0,24.9-18.2,43.8-42.4,43.8c-24.4,0-42.8-19-42.8-44.1
		C327.8,71.1,346,52.2,370.1,52.2 M370.1,47.5C342.4,47.5,323,69.2,323,96s19.8,48.9,47.5,48.9c27.7,0,47.1-21.7,47.1-48.5
		S397.9,47.5,370.1,47.5"/>
	<polygon class="st0" points="536,304.4 543.4,325.6 533.9,334.7 	"/>
	<polygon class="st0" points="529.1,344.9 533.3,284.4 548.1,326.8 	"/>
	<polygon class="st0" points="535.6,254.6 533.9,292.2 513.7,301.8 478.6,307.1 460.4,300 466.6,277 481.9,268.4 514.5,260.8 	"/>
	<polygon class="st0" points="195.6,268.4 195.6,355.5 232.7,268.4 	"/>
	<polygon class="st0" points="6.4,100.4 6.4,85.2 16.6,105.9 	"/>
</g>
</svg>
